HIERARCHY
ROOT SpineBase
{
  OFFSET 0.000000 0.000000 0.000000
  CHANNELS 6 Xposition Yposition Zposition Zrotation Xrotation Yrotation
  JOINT SpineMid
  {
    OFFSET -0.000000 34.691485 0.000000
    CHANNELS 3 Zrotation Xrotation Yrotation
    JOINT SpineShoulder
    {
      OFFSET 0.173431 25.614698 -0.822699
      CHANNELS 3 Zrotation Xrotation Yrotation
      JOINT Neck
      {
        OFFSET 0.044744 8.427449 -0.617163
        CHANNELS 3 Zrotation Xrotation Yrotation
        JOINT Head
        {
          OFFSET 5.024634 9.354302 6.023153
          CHANNELS 3 Zrotation Xrotation Yrotation
          End Site
          {
            OFFSET 0 0 0
          }
        }
      }
      JOINT ShoulderLeft
      {
        OFFSET -2.102201 -5.427453 -14.683421
        CHANNELS 3 Zrotation Xrotation Yrotation
        JOINT ElbowLeft
        {
          OFFSET 0.915318 -28.822044 -7.068569
          CHANNELS 3 Zrotation Xrotation Yrotation
          JOINT WristLeft
          {
            OFFSET 4.668476 -22.937432 0.290020
            CHANNELS 3 Zrotation Xrotation Yrotation
            JOINT HandLeft
            {
              OFFSET -0.093160 -6.823338 2.525550
              CHANNELS 3 Zrotation Xrotation Yrotation
              JOINT HandTipLeft
              {
                OFFSET 1.796432 -7.927575 2.316857
                CHANNELS 3 Zrotation Xrotation Yrotation
                End Site
                {
                  OFFSET 0 0 0
                }
              }
              JOINT ThumbLeft
              {
                OFFSET 3.844104 3.151536 5.017417
                CHANNELS 3 Zrotation Xrotation Yrotation
                End Site
                {
                  OFFSET 0 0 0
                }
              }
            }
          }
        }
      }
      JOINT ShoulderRight
      {
        OFFSET 10.718675 -8.171730 8.389550
        CHANNELS 3 Zrotation Xrotation Yrotation
        JOINT ElbowRight
        {
          OFFSET -2.835554 -18.642285 -24.975932
          CHANNELS 3 Zrotation Xrotation Yrotation
          JOINT WristRight
          {
            OFFSET 5.694640 -16.639215 24.413754
            CHANNELS 3 Zrotation Xrotation Yrotation
            JOINT HandRight
            {
              OFFSET 7.013628 -19.919240 21.039899
              CHANNELS 3 Zrotation Xrotation Yrotation
              JOINT HandTipRight
              {
                OFFSET 0.507384 -0.626014 -0.041213
                CHANNELS 3 Zrotation Xrotation Yrotation
                End Site
                {
                  OFFSET 0 0 0
                }
              }
              JOINT ThumbRight
              {
                OFFSET 0.731599 2.233119 -0.996977
                CHANNELS 3 Zrotation Xrotation Yrotation
                End Site
                {
                  OFFSET 0 0 0
                }
              }
            }
          }
        }
      }
    }
  }
  JOINT HipLeft
  {
    OFFSET -3.331977 2.338273 -7.664987
    CHANNELS 3 Zrotation Xrotation Yrotation
    JOINT KneeLeft
    {
      OFFSET -1.028896 -35.235023 -5.750162
      CHANNELS 3 Zrotation Xrotation Yrotation
      JOINT AnkleLeft
      {
        OFFSET -8.723532 -37.806610 -0.189071
        CHANNELS 3 Zrotation Xrotation Yrotation
        JOINT FootLeft
        {
          OFFSET 9.867048 -3.901649 -8.570005
          CHANNELS 3 Zrotation Xrotation Yrotation
          End Site
          {
            OFFSET 0 0 0
          }
        }
      }
    }
  }
  JOINT HipRight
  {
    OFFSET 4.552398 -0.543377 0.429989
    CHANNELS 3 Zrotation Xrotation Yrotation
    JOINT KneeRight
    {
      OFFSET -0.401744 -31.980997 -10.668294
      CHANNELS 3 Zrotation Xrotation Yrotation
      JOINT AnkleRight
      {
        OFFSET -6.901095 -32.835112 -1.498094
        CHANNELS 3 Zrotation Xrotation Yrotation
        JOINT FootRight
        {
          OFFSET 5.783144 3.348170 -15.901647
          CHANNELS 3 Zrotation Xrotation Yrotation
          End Site
          {
            OFFSET 0 0 0
          }
        }
      }
    }
  }
}
MOTION
Frames: 8
Frame Time: 0.033333
-49.963656 77.785769 323.962926 0.000000 0.000000 -45.755090 -0.000000 0.000000 45.755090 -0.000000 0.000000 0.000000 -0.000000 0.000000 0.000000 0.000000 0.000000 0.000000 -0.000000 0.000000 0.000000 -0.000000 0.000000 0.000000 -0.000000 0.000000 0.000000 -0.000000 0.000000 0.000000 0.000000 0.000000 0.000000 0.000000 0.000000 0.000000 -0.000000 0.000000 0.000000 -0.000000 0.000000 0.000000 -0.000000 0.000000 0.000000 -0.000000 0.000000 0.000000 0.000000 0.000000 0.000000 0.000000 0.000000 0.000000 -0.000000 0.000000 45.755090 -0.000000 0.000000 0.000000 -0.000000 0.000000 0.000000 0.000000 0.000000 0.000000 -0.000000 0.000000 45.755090 -0.000000 0.000000 0.000000 -0.000000 0.000000 0.000000 0.000000 0.000000 0.000000
-49.903400 77.648219 324.038911 0.090003 -0.057382 -45.890662 -0.103846 -0.024683 45.890685 -0.000000 0.000000 0.000000 -0.000000 0.000000 0.000000 0.000000 0.000000 0.000000 -0.000000 0.000000 0.000000 -0.000000 0.000000 0.000000 -0.000000 0.000000 0.000000 -0.000000 0.000000 0.000000 0.000000 0.000000 0.000000 0.000000 0.000000 0.000000 -1.554089 4.519660 1.379862 1.398638 -6.620829 -1.962369 -0.891187 2.032359 -0.202559 7.886780 29.350371 21.140854 0.000000 0.000000 0.000000 0.000000 0.000000 0.000000 -0.103846 -0.024683 45.890685 -0.000000 0.000000 0.000000 -0.000000 0.000000 0.000000 0.000000 0.000000 0.000000 -0.103846 -0.024683 45.890685 -0.000000 0.000000 0.000000 -0.000000 0.000000 0.000000 0.000000 0.000000 0.000000
-49.851217 77.531761 324.097085 0.167649 -0.096428 -46.079229 -0.185749 -0.053869 46.079283 -0.000000 0.000000 0.000000 -0.000000 0.000000 0.000000 0.000000 0.000000 0.000000 -0.000000 0.000000 0.000000 -0.000000 0.000000 0.000000 -0.138212 1.207181 -0.066441 0.107655 -2.399047 -0.210692 0.000000 0.000000 0.000000 0.000000 0.000000 0.000000 -2.409065 6.580070 2.188713 1.984865 -9.690753 -3.065968 -1.462516 3.021155 -0.374826 -7.830732 58.286245 55.767301 0.000000 0.000000 0.000000 0.000000 0.000000 0.000000 -0.185749 -0.053869 46.079283 -0.000000 0.000000 0.000000 -0.000000 0.000000 0.000000 0.000000 0.000000 0.000000 -0.185749 -0.053869 46.079283 -0.000000 0.000000 0.000000 -0.000000 0.000000 0.000000 0.000000 0.000000 0.000000
-49.807105 77.436394 324.137446 0.233118 -0.117301 -46.319573 -0.245832 -0.087580 46.319624 -0.000000 0.000000 0.000000 -0.000000 0.000000 0.000000 0.000000 0.000000 0.000000 -0.000000 0.000000 0.000000 -0.000000 0.000000 0.000000 -0.164215 1.712726 -0.082166 0.042013 -3.306291 -0.315090 0.000000 0.000000 0.000000 0.000000 0.000000 0.000000 -2.687705 6.784842 2.518233 2.070983 -9.894494 -3.558400 -1.789169 3.087786 -0.616978 -27.471823 59.036428 75.744596 0.000000 0.000000 0.000000 0.000000 0.000000 0.000000 -0.245832 -0.087580 46.319624 -0.000000 0.000000 0.000000 -0.000000 0.000000 0.000000 0.000000 0.000000 0.000000 -0.245832 -0.087580 46.319624 -0.000000 0.000000 0.000000 -0.000000 0.000000 0.000000 0.000000 0.000000 0.000000
-49.771065 77.362118 324.159995 0.286555 -0.120115 -46.610030 -0.284139 -0.125724 46.610019 -0.000000 0.000000 0.000000 -0.000000 0.000000 0.000000 0.000000 0.000000 0.000000 0.071615 0.928587 0.011324 -0.071808 -0.928572 -0.012486 -0.162905 2.159210 -0.087318 -0.100494 -4.039367 -0.423519 0.000000 0.000000 0.000000 0.000000 0.000000 0.000000 -2.418540 5.216237 2.402250 1.727334 -7.317304 -3.490833 -1.909008 2.257266 -0.982594 -24.771932 46.413300 60.723798 0.000000 0.000000 0.000000 0.000000 0.000000 0.000000 -0.284139 -0.125724 46.610019 -0.000000 0.000000 0.000000 -0.000000 0.000000 0.000000 0.000000 0.000000 0.000000 -0.284139 -0.125724 46.610019 -0.000000 0.000000 0.000000 -0.000000 0.000000 0.000000 0.000000 0.000000 0.000000
-49.743097 77.308933 324.164733 0.328072 -0.104933 -46.948515 -0.300639 -0.168102 46.948374 -0.000000 0.000000 0.000000 -0.000000 0.000000 0.000000 0.000000 0.000000 0.000000 0.043475 1.002588 0.020753 -0.043845 -1.002572 -0.021517 -0.134851 2.550344 -0.082415 -0.319626 -4.608647 -0.538370 0.000000 0.000000 0.000000 0.000000 0.000000 0.000000 -1.539063 1.483389 1.820904 0.832286 -1.483909 -2.760391 -1.839899 0.467415 -1.506495 -17.504999 23.932653 31.652150 0.000000 0.000000 0.000000 0.000000 0.000000 0.000000 -0.300639 -0.168102 46.948374 -0.000000 0.000000 0.000000 -0.000000 0.000000 0.000000 0.000000 0.000000 0.000000 -1.098658 -0.030120 47.086301 0.442326 -0.678401 -0.136689 -0.000000 0.000000 0.000000 0.000000 0.000000 0.000000
-49.730076 77.261761 324.150671 0.345971 -0.071902 -47.433270 -0.286987 -0.206166 47.432971 -0.000000 0.000000 0.000000 -0.000000 0.000000 0.000000 0.000000 0.000000 0.000000 -0.044613 0.998146 0.042938 0.043871 -0.998178 -0.042167 0.292523 3.149037 0.057818 -1.838179 -4.926514 -1.033430 0.000000 0.000000 0.000000 0.000000 0.000000 0.000000 0.047211 -7.348742 1.158821 -1.267568 11.790741 -1.562093 -1.798043 -3.253350 -2.629620 -18.375158 6.180062 13.890081 0.000000 0.000000 0.000000 0.000000 0.000000 0.000000 -0.286987 -0.206166 47.432971 -0.000000 0.000000 0.000000 -0.000000 0.000000 0.000000 0.000000 0.000000 0.000000 -1.398132 0.112620 47.591011 0.514056 -1.035393 -0.154303 -0.000000 0.000000 0.000000 0.000000 0.000000 0.000000
-49.667845 77.265394 324.138903 0.431042 -0.046881 -48.151994 -0.322498 -0.289813 48.151355 -0.000000 0.000000 0.000000 -0.000000 0.000000 0.000000 0.000000 0.000000 0.000000 -0.116615 0.885576 0.057518 0.115740 -0.885691 -0.055722 0.433199 3.380884 0.102510 -1.678788 -5.340007 -1.024735 0.000000 0.000000 0.000000 0.000000 0.000000 0.000000 2.962827 -21.581890 -0.112649 -6.162785 31.503878 2.700517 -1.418394 -7.874950 -3.693995 -16.302975 -5.891950 0.599059 0.000000 0.000000 0.000000 0.000000 0.000000 0.000000 -0.322498 -0.289813 48.151355 -0.000000 0.000000 0.000000 -0.000000 0.000000 0.000000 0.000000 0.000000 0.000000 -1.775650 0.117708 48.353506 0.661259 -1.356661 -0.196505 -0.000000 0.000000 0.000000 0.000000 0.000000 0.000000
